<?xml version="1.0" encoding="utf-8"?>
<!-- Generator: Adobe Illustrator 19.0.0, SVG Export Plug-In . SVG Version: 6.00 Build 0)  -->
<svg version="1.1" id="Layer_1" xmlns="http://www.w3.org/2000/svg" xmlns:xlink="http://www.w3.org/1999/xlink" x="0px" y="0px"
	 viewBox="386 -386 900 900" style="enable-background:new 386 -386 900 900;" xml:space="preserve">
<style type="text/css">
	.st0{fill:#FFFFFF;}
</style>
<path class="st0" d="M1053.3-16.4c0,9.9-3.4,18.3-10.3,25.1L861.4,190.4c-7.1,7.1-15.6,10.6-25.4,10.6c-10,0-18.4-3.6-25.1-10.6
	L629.3,8.8c-7-6.7-10.6-15.1-10.6-25.1c0-9.8,3.5-18.3,10.6-25.4l20.7-21c7.3-6.9,15.7-10.3,25.4-10.3c9.9,0,18.3,3.4,25.1,10.3
	L836,72.9L971.6-62.7c6.9-6.9,15.3-10.3,25.1-10.3c9.7,0,18.2,3.4,25.4,10.3l20.9,20.9C1049.9-34.5,1053.3-26,1053.3-16.4
	L1053.3-16.4z"/>
</svg>
