<?xml version="1.0" encoding="utf-8"?>
<!-- Generator: Adobe Illustrator 19.0.0, SVG Export Plug-In . SVG Version: 6.00 Build 0)  -->
<svg version="1.1" id="Layer_1" xmlns="http://www.w3.org/2000/svg" xmlns:xlink="http://www.w3.org/1999/xlink" x="0px" y="0px"
	 viewBox="386 -386 900 900" style="enable-background:new 386 -386 900 900;" xml:space="preserve">
<style type="text/css">
	.st0{fill:#FFFFFF;}
</style>
<path class="st0" d="M956.6,390c-14.8,0-27.4-5.2-37.7-15.5L646.5,102.1c-10.6-10.6-16-23.3-16-38.1c0-15.1,5.3-27.6,15.9-37.7
	l272.5-272.5c10.1-10.6,22.6-15.9,37.7-15.9c14.8,0,27.5,5.3,38.1,15.9l31.4,31c10.3,10.9,15.4,23.6,15.4,38.1
	c0,14.8-5.2,27.4-15.4,37.6L822.7,64l203.4,203.4c10.3,10.3,15.4,22.9,15.4,37.6c0,14.5-5.2,27.2-15.4,38.1l-31.4,31.3
	C983.8,384.8,971.1,390,956.6,390L956.6,390z"/>
</svg>
