<?xml version="1.0" encoding="utf-8"?>
<!-- Generator: Adobe Illustrator 19.0.0, SVG Export Plug-In . SVG Version: 6.00 Build 0)  -->
<svg version="1.1" id="Layer_1" xmlns="http://www.w3.org/2000/svg" xmlns:xlink="http://www.w3.org/1999/xlink" x="0px" y="0px"
	 viewBox="386 -386 900 900" style="enable-background:new 386 -386 900 900;" xml:space="preserve">
<style type="text/css">
	.st0{fill:#FFFFFF;}
</style>
<path class="st0" d="M996.8,498.7c-19.7,0-36.5-6.9-50.2-20.6L583.3,114.8C569.2,100.7,562,83.7,562,64c0-20.1,7.1-36.8,21.2-50.2
	l363.3-363.3c13.4-14.1,30.1-21.2,50.2-21.2c19.7,0,36.6,7.1,50.8,21.2l41.8,41.3c13.8,14.5,20.6,31.4,20.6,50.8
	c0,19.7-6.9,36.5-20.6,50.2L818.2,64l271.2,271.2c13.8,13.8,20.6,30.5,20.6,50.2c0,19.3-6.9,36.3-20.6,50.8l-41.8,41.8
	C1033.1,491.8,1016.1,498.7,996.8,498.7L996.8,498.7z"/>
</svg>
