<?xml version="1.0" encoding="utf-8"?>
<!-- Generator: Adobe Illustrator 19.0.0, SVG Export Plug-In . SVG Version: 6.00 Build 0)  -->
<svg version="1.1" id="Layer_1" xmlns="http://www.w3.org/2000/svg" xmlns:xlink="http://www.w3.org/1999/xlink" x="0px" y="0px"
	 viewBox="386 -386 900 900" style="enable-background:new 386 -386 900 900;" xml:space="preserve">
<style type="text/css">
	.st0{fill:#FFFFFF;}
</style>
<path class="st0" d="M715.5-262c14.8,0,27.4,5.2,37.7,15.5l272.5,272.5c10.6,10.6,15.9,23.3,15.9,38.1c0,15.1-5.3,27.6-15.9,37.7
	L753.1,374.1c-10.1,10.6-22.6,15.9-37.7,15.9c-14.8,0-27.4-5.3-38.1-15.9l-31.3-31c-10.3-10.9-15.5-23.6-15.5-38.1
	c0-14.8,5.2-27.4,15.5-37.6L849.3,64L645.9-139.4c-10.3-10.4-15.4-22.9-15.4-37.6c0-14.5,5.2-27.2,15.4-38.1l31.4-31.3
	C688.3-256.8,701-262,715.5-262L715.5-262z"/>
</svg>
