<?xml version="1.0" encoding="utf-8"?>
<!-- Generator: Adobe Illustrator 19.0.0, SVG Export Plug-In . SVG Version: 6.00 Build 0)  -->
<svg version="1.1" id="Layer_1" xmlns="http://www.w3.org/2000/svg" xmlns:xlink="http://www.w3.org/1999/xlink" x="0px" y="0px"
	 viewBox="386 -386 900 900" style="enable-background:new 386 -386 900 900;" xml:space="preserve">
<style type="text/css">
	.st0{fill:#FFFFFF;}
</style>
<path class="st0" d="M755.6-153.3c9.8,0,18.3,3.4,25.1,10.3L962.4,38.6c7,7,10.6,15.5,10.6,25.4c0,10.1-3.5,18.4-10.6,25.1
	L780.7,270.7c-6.7,7.1-15,10.6-25.1,10.6c-9.8,0-18.3-3.5-25.4-10.6l-20.9-20.6c-6.9-7.3-10.3-15.7-10.3-25.4
	c0-9.9,3.5-18.3,10.3-25.1L844.9,64L709.3-71.6c-6.9-6.9-10.3-15.3-10.3-25.1c0-9.6,3.5-18.1,10.3-25.4l20.9-20.9
	C737.5-149.9,745.9-153.3,755.6-153.3L755.6-153.3z"/>
</svg>
