<?xml version="1.0" encoding="utf-8"?>
<!-- Generator: Adobe Illustrator 19.0.0, SVG Export Plug-In . SVG Version: 6.00 Build 0)  -->
<svg version="1.1" id="Layer_1" xmlns="http://www.w3.org/2000/svg" xmlns:xlink="http://www.w3.org/1999/xlink" x="0px" y="0px"
	 viewBox="386 -386 900 900" style="enable-background:new 386 -386 900 900;" xml:space="preserve">
<style type="text/css">
	.st0{fill:#FFFFFF;}
</style>
<path class="st0" d="M675.3-370.7c19.7,0,36.5,6.9,50.2,20.6l363.3,363.3c14.1,14.1,21.2,31.1,21.2,50.8c0,20.1-7.1,36.8-21.2,50.2
	L725.5,477.5c-13.4,14.1-30.1,21.2-50.2,21.2c-19.7,0-36.6-7.1-50.8-21.2l-41.8-41.3c-13.8-14.5-20.6-31.4-20.6-50.8
	c0-19.7,6.9-36.5,20.6-50.2L853.8,64L582.6-207.2C568.8-221,562-237.7,562-257.4c0-19.3,6.9-36.3,20.6-50.8l41.8-41.8
	C639-363.8,656-370.7,675.3-370.7L675.3-370.7z"/>
</svg>
